<svg width="18" height="20" viewBox="0 0 18 20" fill="none" xmlns="http://www.w3.org/2000/svg">
<path d="M6.00002 17.0057V16.5057H2.25002C1.65353 16.5049 1.08169 16.2676 0.659908 15.8458C0.238123 15.424 0.000815322 14.8522 2.15836e-05 14.2557V13.8737C-0.00193847 13.3979 0.129636 12.9312 0.379781 12.5266C0.629926 12.1219 0.988603 11.7956 1.41502 11.5847C1.60571 11.4893 1.76878 11.3467 1.8887 11.1704C2.00861 10.9941 2.08137 10.79 2.10002 10.5777L2.54602 5.66766C2.6852 4.11942 3.39861 2.67927 4.54595 1.63044C5.69329 0.581605 7.19153 0 8.74602 0C10.3005 0 11.7988 0.581605 12.9461 1.63044C14.0934 2.67927 14.8068 4.11942 14.946 5.66766L15.392 10.5777C15.4122 10.7895 15.4857 10.9927 15.6057 11.1685C15.7256 11.3442 15.8881 11.4867 16.078 11.5827C16.5048 11.7937 16.8639 12.1201 17.1145 12.5249C17.3651 12.9297 17.4973 13.3966 17.496 13.8727V14.2547C17.4955 14.8512 17.2583 15.4232 16.8364 15.8451C16.4146 16.2669 15.8426 16.5041 15.246 16.5047H11.5V17.0057C11.5 17.735 11.2103 18.4345 10.6946 18.9502C10.1788 19.4659 9.47937 19.7557 8.75002 19.7557C8.02068 19.7557 7.3212 19.4659 6.80548 18.9502C6.28975 18.4345 6.00002 17.735 6.00002 17.0057ZM7.50002 17.0057C7.50002 17.3372 7.63172 17.6551 7.86614 17.8895C8.10056 18.124 8.4185 18.2557 8.75002 18.2557C9.08154 18.2557 9.39948 18.124 9.6339 17.8895C9.86832 17.6551 10 17.3372 10 17.0057V16.5057H7.50002V17.0057ZM4.04502 5.80566L3.60002 10.7137C3.55874 11.1809 3.3981 11.6297 3.13351 12.0171C2.86893 12.4044 2.50927 12.7173 2.08902 12.9257C1.91187 13.0129 1.76276 13.1481 1.65863 13.3158C1.55451 13.4836 1.49955 13.6772 1.50002 13.8747V14.2567C1.50055 14.4553 1.57977 14.6457 1.72034 14.7861C1.8609 14.9264 2.05136 15.0054 2.25002 15.0057H15.25C15.4489 15.0054 15.6395 14.9263 15.7801 14.7857C15.9207 14.6451 15.9998 14.4545 16 14.2557V13.8737C16.0007 13.6767 15.9461 13.4834 15.8426 13.3159C15.739 13.1483 15.5905 13.0131 15.414 12.9257C14.9933 12.7176 14.6331 12.4049 14.3679 12.0175C14.1028 11.6302 13.9417 11.1812 13.9 10.7137L13.456 5.80566C13.349 4.63162 12.807 3.53998 11.9364 2.74509C11.0658 1.9502 9.92943 1.50949 8.75052 1.50949C7.57161 1.50949 6.43528 1.9502 5.56466 2.74509C4.69404 3.53998 4.15202 4.63162 4.04502 5.80566Z" fill="white"/>
</svg>
