<svg width="16" height="16" viewBox="0 0 16 16" fill="none" xmlns="http://www.w3.org/2000/svg">
<g clip-path="url(#clip0_9_5199)">
<path d="M14.6693 2.99865C14.67 2.42199 14.3193 1.92532 13.776 1.73332L9.46601 0.212653C8.54068 -0.11468 7.52201 -0.115347 6.59735 0.208653L2.23535 1.73532C1.69001 1.92599 1.33801 2.42199 1.33801 2.99932C1.33801 3.57732 1.69068 4.07332 2.23601 4.26332L6.57401 5.77665C7.03335 5.93665 7.51668 6.01732 7.99935 6.01732C8.48201 6.01732 8.96468 5.93665 9.42401 5.77665L13.3333 4.41332V7.33265C13.3333 7.70065 13.632 7.99932 14 7.99932C14.368 7.99932 14.6667 7.70065 14.6667 7.33265C14.6667 7.33265 14.6693 3.00465 14.6693 2.99865ZM9.86335 7.03599L12 6.29065V6.66665C12 8.87265 10.206 10.6667 8.00001 10.6667C5.79401 10.6667 4.00001 8.87265 4.00001 6.66665V6.29132L6.13535 7.03665C7.33468 7.45465 8.66468 7.45465 9.86335 7.03665V7.03599ZM12.6667 16H3.33335C3.12135 16 2.92201 15.8993 2.79668 15.7287C2.67135 15.558 2.63401 15.338 2.69668 15.1353C3.39268 12.8967 5.57335 11.3333 8.00001 11.3333C10.4267 11.3333 12.6073 12.8967 13.3033 15.1353C13.366 15.3373 13.3293 15.558 13.2033 15.7287C13.0773 15.8993 12.8787 16 12.6667 16Z" fill="black" fill-opacity="0.5"/>
</g>
<defs>
<clipPath id="clip0_9_5199">
<rect width="16" height="16" fill="white"/>
</clipPath>
</defs>
</svg>
