<svg width="16" height="16" viewBox="0 0 16 16" fill="none" xmlns="http://www.w3.org/2000/svg">
<path d="M11.2989 1.36661C10.4182 0.485313 9.24629 0 7.99968 0C6.75306 0 5.58111 0.485313 4.69981 1.36661C2.88056 3.18587 2.88056 6.14641 4.70515 7.971L6.36841 9.5976C6.81839 10.0376 7.40903 10.2576 7.99968 10.2576C8.59032 10.2576 9.18096 10.0376 9.63094 9.5976L11.2989 7.96567C12.1802 7.08437 12.6661 5.91242 12.6661 4.6658C12.6661 3.41919 12.1802 2.24857 11.2989 1.36661ZM7.99968 6.65972C6.89506 6.65972 5.99976 5.76442 5.99976 4.6598C5.99976 3.55518 6.89506 2.65989 7.99968 2.65989C9.1043 2.65989 9.99959 3.55518 9.99959 4.6598C9.99959 5.76442 9.1043 6.65972 7.99968 6.65972ZM15.9993 11.1742C16.0007 11.4102 15.8773 11.6288 15.676 11.7495L9.1023 15.694C8.76231 15.898 8.38099 16 8.00034 16C7.61969 16 7.23771 15.898 6.89839 15.694L0.323331 11.7495C0.121339 11.6282 -0.00132252 11.4095 1.07592e-05 11.1742C0.00134404 10.9389 0.126672 10.7215 0.329997 10.6029L3.56653 8.7083C3.63319 8.78163 3.70186 8.85429 3.77252 8.92496L5.43578 10.5509C6.12109 11.2215 7.03238 11.5915 7.99968 11.5915C8.96697 11.5915 9.8776 11.2215 10.5636 10.5509L12.2422 8.90896C12.3075 8.84363 12.3715 8.7763 12.4335 8.7083L15.6694 10.6022C15.8727 10.7215 15.998 10.9395 15.9993 11.1742Z" fill="white"/>
</svg>
