<svg width="24" height="24" viewBox="0 0 24 24" fill="none" xmlns="http://www.w3.org/2000/svg">
<circle cx="12.0001" cy="12.1632" r="4.44444" stroke="#5F5D6C" stroke-width="1.5"/>
<path d="M12 4.75C14.2389 4.75 16.2719 5.7354 17.9102 6.91406C19.5543 8.09698 20.8655 9.52085 21.6768 10.5059C22.0537 10.9635 22.4951 11.4454 22.4951 12.167C22.495 12.8883 22.0536 13.3696 21.6768 13.8271C20.8655 14.8121 19.5543 16.2361 17.9102 17.4189C16.2719 18.5976 14.2389 19.583 12 19.583C9.7611 19.583 7.72811 18.5976 6.08984 17.4189C4.44575 16.2361 3.13452 14.8121 2.32324 13.8271C1.94635 13.3696 1.50502 12.8883 1.50488 12.167C1.50488 11.4454 1.94626 10.9635 2.32324 10.5059C3.13454 9.52085 4.44567 8.09698 6.08984 6.91406C7.72811 5.7354 9.7611 4.75 12 4.75Z" stroke="#5F5D6C" stroke-width="1.5"/>
</svg>
