<svg width="24" height="24" viewBox="0 0 24 24" fill="none" xmlns="http://www.w3.org/2000/svg">
<path fill-rule="evenodd" clip-rule="evenodd" d="M6.27103 2.11151C5.46135 2.21816 5.03258 2.41324 4.72718 2.71244C4.42179 3.01165 4.22268 3.43172 4.11382 4.225C4.00176 5.04159 4 6.12387 4 7.67568V16.2442C4.38867 15.9781 4.82674 15.7756 5.29899 15.6517C5.82716 15.513 6.44305 15.5132 7.34563 15.5135H20V7.67568C20 6.12387 19.9982 5.04159 19.8862 4.22499C19.7773 3.43172 19.5782 3.01165 19.2728 2.71244C18.9674 2.41324 18.5387 2.21816 17.729 2.11151C16.8955 2.00172 15.7908 2 14.2069 2H9.7931C8.2092 2 7.10452 2.00172 6.27103 2.11151ZM6.75862 6.59459C6.75862 6.1468 7.12914 5.78378 7.58621 5.78378H16.4138C16.8709 5.78378 17.2414 6.1468 17.2414 6.59459C17.2414 7.04239 16.8709 7.40541 16.4138 7.40541H7.58621C7.12914 7.40541 6.75862 7.04239 6.75862 6.59459ZM7.58621 9.56757C7.12914 9.56757 6.75862 9.93058 6.75862 10.3784C6.75862 10.8262 7.12914 11.1892 7.58621 11.1892H13.1034C13.5605 11.1892 13.931 10.8262 13.931 10.3784C13.931 9.93058 13.5605 9.56757 13.1034 9.56757H7.58621Z" fill="#FF8D2A"/>
<path d="M8.68943 17.135H7.47319C6.39373 17.135 6.01635 17.142 5.72716 17.2179C4.93343 17.4263 4.30066 18.0043 4.0293 18.7557C4.04608 19.1381 4.07237 19.4745 4.1136 19.7749C4.22246 20.5682 4.42157 20.9883 4.72696 21.2875C5.03236 21.5867 5.46113 21.7817 6.27081 21.8884C7.1043 21.9982 8.20898 21.9999 9.79288 21.9999H14.2067C15.7906 21.9999 16.8953 21.9982 17.7288 21.8884C18.5385 21.7817 18.9672 21.5867 19.2726 21.2875C19.578 20.9883 19.7771 20.5682 19.886 19.7749C19.9774 19.1087 19.9954 18.2656 19.9989 17.135H13.1032V20.1416C13.1032 20.4396 13.1032 20.5885 12.9986 20.6487C12.8939 20.7089 12.7508 20.6423 12.4645 20.5091L11.0937 19.8712C10.9969 19.8261 10.9484 19.8036 10.8964 19.8036C10.8443 19.8036 10.7958 19.8261 10.699 19.8712L9.3282 20.5091C9.04191 20.6423 8.89877 20.7089 8.7941 20.6487C8.68943 20.5885 8.68943 20.4396 8.68943 20.1416V17.135Z" fill="#FF8D2A"/>
</svg>
