<svg width="17" height="17" viewBox="0 0 17 17" fill="none" xmlns="http://www.w3.org/2000/svg">
<path d="M14.875 4.25C14.875 5.4236 13.9236 6.375 12.75 6.375C11.5764 6.375 10.625 5.4236 10.625 4.25C10.625 3.0764 11.5764 2.125 12.75 2.125C13.9236 2.125 14.875 3.0764 14.875 4.25Z" stroke="#FF8D2A" stroke-width="1.41667"/>
<path d="M14.875 12.75C14.875 13.9236 13.9236 14.875 12.75 14.875C11.5764 14.875 10.625 13.9236 10.625 12.75C10.625 11.5764 11.5764 10.625 12.75 10.625C13.9236 10.625 14.875 11.5764 14.875 12.75Z" stroke="#FF8D2A" stroke-width="1.41667"/>
<path d="M6.375 8.5C6.375 9.67364 5.4236 10.625 4.25 10.625C3.0764 10.625 2.125 9.67364 2.125 8.5C2.125 7.32636 3.0764 6.375 4.25 6.375C5.4236 6.375 6.375 7.32636 6.375 8.5Z" stroke="#FF8D2A" stroke-width="1.41667"/>
<path d="M6.17725 7.53645L10.6252 5.3125" stroke="#FF8D2A" stroke-width="1.41667" stroke-linecap="round" stroke-linejoin="round"/>
<path d="M6.16699 9.45801L10.6252 11.6871" stroke="#FF8D2A" stroke-width="1.41667" stroke-linecap="round" stroke-linejoin="round"/>
</svg>
