<svg width="24" height="24" viewBox="0 0 24 24" fill="none" xmlns="http://www.w3.org/2000/svg">
<path d="M21 10.5H17.25V4.5C17.25 4.05 16.95 3.75 16.5 3.75H3C2.55 3.75 2.25 4.05 2.25 4.5V18C2.25 19.65 3.6 21 5.25 21H18C18.075 21 18.15 21 18.225 20.925C18.375 20.925 18.525 21 18.75 21C20.4 21 21.75 19.65 21.75 18V11.25C21.75 10.8 21.45 10.5 21 10.5ZM7.5 12H6C5.55 12 5.25 11.7 5.25 11.25C5.25 10.8 5.55 10.5 6 10.5H7.5C7.95 10.5 8.25 10.8 8.25 11.25C8.25 11.7 7.95 12 7.5 12ZM10.5 9H6C5.55 9 5.25 8.7 5.25 8.25C5.25 7.8 5.55 7.5 6 7.5H10.5C10.95 7.5 11.25 7.8 11.25 8.25C11.25 8.7 10.95 9 10.5 9ZM20.25 18C20.25 18.825 19.575 19.5 18.75 19.5C18.6 19.5 18.45 19.5 18.3 19.425C17.85 19.275 17.55 18.9 17.4 18.525V18.45C17.25 18.3 17.25 18.15 17.25 18V12H20.25V18Z" fill="#FF8D2A"/>
</svg>
