<svg width="17" height="17" viewBox="0 0 17 17" fill="none" xmlns="http://www.w3.org/2000/svg">
<path fill-rule="evenodd" clip-rule="evenodd" d="M4.31472 2H12.6853C13.4898 2 13.7823 2.08378 14.0763 2.24122C14.3702 2.39867 14.6013 2.62978 14.7588 2.92372C14.9162 3.21767 15 3.50944 15 4.31472V9.73861L11.8287 6.81144C11.7136 6.70526 11.5769 6.62529 11.428 6.57704C11.279 6.52878 11.1213 6.51339 10.9659 6.53193C10.8104 6.55046 10.6608 6.60248 10.5273 6.6844C10.3939 6.76632 10.2798 6.87619 10.1929 7.00644L7.93233 10.3973L6.26906 9.32839C6.04731 9.18593 5.78123 9.12919 5.52065 9.16881C5.26008 9.20842 5.02289 9.34168 4.8535 9.54361L2.00361 12.9417C2.00124 12.8562 2.00003 12.7708 2 12.6853V4.31472C2 3.50944 2.08378 3.21767 2.24122 2.92372C2.39867 2.62978 2.62978 2.39867 2.92372 2.24122C3.21767 2.08378 3.50944 2 4.31472 2ZM11.1592 8.16056L15 11.7045V12.6846C15 13.4891 14.9162 13.7816 14.7588 14.0756C14.6048 14.3663 14.3671 14.6041 14.0763 14.7581C13.7823 14.9155 13.4906 14.9993 12.6853 14.9993H4.31472C3.50944 14.9993 3.21767 14.9155 2.92372 14.7581C2.79669 14.6905 2.67894 14.6067 2.57344 14.5089L5.75556 10.7151L7.44989 11.8042C7.68896 11.9578 7.97881 12.0113 8.25697 11.9532C8.53514 11.8951 8.77934 11.7301 8.93694 11.4936L11.1592 8.16056ZM5.60244 4.16667C4.80078 4.16667 4.16667 4.76756 4.16667 5.60244C4.16667 6.43806 4.8015 7.05556 5.60244 7.05556C6.42072 7.05556 7.05556 6.43806 7.05556 5.60244C7.05556 4.76756 6.42072 4.16667 5.60244 4.16667Z" fill="#757384"/>
</svg>
