<svg width="24" height="24" viewBox="0 0 24 24" fill="none" xmlns="http://www.w3.org/2000/svg">
<path d="M4.66576 19.63C4.00573 19.0093 3.4771 18.2624 3.11124 17.4335C2.74538 16.6046 2.54975 15.7107 2.53594 14.8048C2.52214 13.8989 2.69045 12.9994 3.03088 12.1598C3.37132 11.3201 3.87695 10.5575 4.51776 9.91696L11.3178 3.11696C11.7659 2.6594 12.3003 2.29524 12.8901 2.04553C13.4799 1.79582 14.1133 1.66553 14.7538 1.66218C15.3942 1.65882 16.029 1.78249 16.6213 2.02601C17.2137 2.26953 17.7519 2.62809 18.2048 3.08093C18.6577 3.53377 19.0163 4.07191 19.2599 4.66423C19.5035 5.25655 19.6273 5.8913 19.624 6.53175C19.6208 7.1722 19.4906 7.80565 19.241 8.39547C18.9913 8.98528 18.6272 9.51975 18.1698 9.96796L11.3698 16.768C10.8132 17.2993 10.0733 17.5958 9.30376 17.5958C8.53426 17.5958 7.79435 17.2993 7.23776 16.768C6.6908 16.2193 6.38366 15.4762 6.38366 14.7015C6.38366 13.9267 6.6908 13.1836 7.23776 12.635L12.6728 7.19996C12.8614 7.0178 13.114 6.91701 13.3762 6.91928C13.6384 6.92156 13.8892 7.02673 14.0746 7.21214C14.26 7.39755 14.3652 7.64836 14.3674 7.91056C14.3697 8.17275 14.2689 8.42536 14.0868 8.61396L8.64976 14.049C8.47877 14.2221 8.38288 14.4556 8.38288 14.699C8.38288 14.9423 8.47877 15.1758 8.64976 15.349C8.8253 15.5153 9.05793 15.608 9.29976 15.608C9.54159 15.608 9.77422 15.5153 9.94976 15.349L16.7498 8.54896C17.2703 8.01282 17.559 7.2934 17.5535 6.54615C17.548 5.79889 17.2487 5.08381 16.7203 4.55541C16.1919 4.02701 15.4768 3.72772 14.7296 3.7222C13.9823 3.71669 13.2629 4.00541 12.7268 4.52596L5.92676 11.326C5.47501 11.7769 5.11845 12.314 4.87824 12.9054C4.63803 13.4968 4.51905 14.1304 4.52838 14.7686C4.53771 15.4069 4.67514 16.0367 4.93254 16.6208C5.18993 17.2049 5.56203 17.7314 6.02676 18.169C6.97847 19.0082 8.21713 19.4482 9.485 19.3973C10.7529 19.3465 11.9523 18.8087 12.8338 17.896L20.8178 9.91196C20.91 9.81645 21.0203 9.74027 21.1424 9.68786C21.2644 9.63545 21.3956 9.60786 21.5284 9.60671C21.6611 9.60555 21.7928 9.63086 21.9157 9.68114C22.0386 9.73142 22.1503 9.80567 22.2442 9.89956C22.338 9.99346 22.4123 10.1051 22.4626 10.228C22.5129 10.3509 22.5382 10.4826 22.537 10.6154C22.5359 10.7481 22.5083 10.8794 22.4559 11.0014C22.4035 11.1234 22.3273 11.2337 22.2318 11.326L14.2478 19.31C12.9155 20.6444 11.1084 21.396 9.22276 21.4C7.53332 21.4143 5.90258 20.7809 4.66576 19.63Z" fill="#FF8D2A"/>
</svg>
