<svg width="17" height="17" viewBox="0 0 17 17" fill="none" xmlns="http://www.w3.org/2000/svg">
<path d="M3.30508 13.905C2.83755 13.4653 2.46311 12.9362 2.20396 12.3491C1.94481 11.762 1.80623 11.1288 1.79645 10.4871C1.78668 9.84544 1.9059 9.20832 2.14704 8.61358C2.38818 8.01884 2.74633 7.4786 3.20024 7.02492L8.01691 2.20825C8.33434 1.88415 8.71289 1.6262 9.13065 1.44933C9.5484 1.27245 9.99709 1.18015 10.4507 1.17778C10.9044 1.17541 11.354 1.263 11.7736 1.4355C12.1932 1.60799 12.5744 1.86197 12.8952 2.18273C13.216 2.50349 13.4701 2.88468 13.6426 3.30424C13.8152 3.7238 13.9028 4.17341 13.9005 4.62706C13.8982 5.08072 13.806 5.52941 13.6292 5.9472C13.4524 6.36498 13.1945 6.74356 12.8704 7.06104L8.05374 11.8777C7.65949 12.2541 7.13538 12.4641 6.59033 12.4641C6.04527 12.4641 5.52116 12.2541 5.12691 11.8777C4.73948 11.4891 4.52192 10.9627 4.52192 10.4139C4.52192 9.86518 4.73948 9.3388 5.12691 8.95017L8.9767 5.10038C9.11029 4.97135 9.28922 4.89995 9.47494 4.90157C9.66067 4.90318 9.83832 4.97768 9.96966 5.10901C10.101 5.24034 10.1755 5.418 10.1771 5.60372C10.1787 5.78944 10.1073 5.96837 9.97828 6.10196L6.12708 9.95175C6.00596 10.0744 5.93804 10.2398 5.93804 10.4122C5.93804 10.5845 6.00596 10.75 6.12708 10.8726C6.25142 10.9904 6.41619 11.0561 6.58749 11.0561C6.75879 11.0561 6.92357 10.9904 7.04791 10.8726L11.8646 6.05592C12.2333 5.67615 12.4378 5.16657 12.4339 4.63726C12.43 4.10796 12.218 3.60144 11.8437 3.22715C11.4694 2.85287 10.9629 2.64087 10.4336 2.63697C9.9043 2.63307 9.39471 2.83757 9.01495 3.20629L4.19828 8.02296C3.8783 8.34239 3.62573 8.72283 3.45558 9.14173C3.28543 9.56062 3.20116 10.0094 3.20777 10.4615C3.21437 10.9136 3.31172 11.3598 3.49404 11.7735C3.67636 12.1872 3.93993 12.5601 4.26912 12.8701C4.94325 13.4645 5.82063 13.7762 6.7187 13.7402C7.61678 13.7042 8.46638 13.3232 9.09074 12.6767L14.7461 7.02138C14.8114 6.95372 14.8896 6.89976 14.976 6.86264C15.0624 6.82552 15.1554 6.80598 15.2494 6.80516C15.3435 6.80434 15.4367 6.82226 15.5238 6.85788C15.6108 6.89349 15.6899 6.94609 15.7564 7.0126C15.8229 7.0791 15.8755 7.15819 15.9112 7.24524C15.9468 7.33229 15.9647 7.42557 15.9639 7.51962C15.9631 7.61367 15.9435 7.70662 15.9064 7.79304C15.8693 7.87946 15.8153 7.95762 15.7477 8.02296L10.0923 13.6783C9.14863 14.6235 7.8686 15.1559 6.53295 15.1587C5.33627 15.1689 4.18116 14.7202 3.30508 13.905Z" fill="#92919F"/>
</svg>
