<svg width="17" height="17" viewBox="0 0 17 17" fill="none" xmlns="http://www.w3.org/2000/svg">
<path d="M8.50016 10.2708V11.6875M4.9585 7.10373C5.29242 7.08333 5.70408 7.08333 6.2335 7.08333H10.7668C11.2962 7.08333 11.7079 7.08333 12.0418 7.10373M4.9585 7.10373C4.54177 7.12916 4.24612 7.1864 3.99377 7.31496C3.59392 7.51867 3.26884 7.84373 3.06511 8.24358C2.8335 8.69819 2.8335 9.29319 2.8335 10.4833V11.475C2.8335 12.6651 2.8335 13.2601 3.06511 13.7147C3.26884 14.1146 3.59392 14.4397 3.99377 14.6434C4.44833 14.875 5.04338 14.875 6.2335 14.875H10.7668C11.957 14.875 12.552 14.875 13.0066 14.6434C13.4064 14.4397 13.7315 14.1146 13.9352 13.7147C14.1668 13.2601 14.1668 12.6651 14.1668 11.475V10.4833C14.1668 9.29319 14.1668 8.69819 13.9352 8.24358C13.7315 7.84373 13.4064 7.51867 13.0066 7.31496C12.7542 7.1864 12.4585 7.12916 12.0418 7.10373M4.9585 7.10373V5.66667C4.9585 3.71066 6.54416 2.125 8.50016 2.125C10.4562 2.125 12.0418 3.71066 12.0418 5.66667V7.10373" stroke="#92919F" stroke-width="1.41667" stroke-linecap="round" stroke-linejoin="round"/>
</svg>
