<svg width="40" height="40" viewBox="0 0 40 40" fill="none" xmlns="http://www.w3.org/2000/svg">
<rect width="40" height="40" rx="20" fill="black" fill-opacity="0.75"/>
<path d="M11 16.9998C11 15.8952 11.8954 14.9998 13 14.9998H14.5C15.1295 14.9998 15.7223 14.7034 16.1 14.1998L17.15 12.7998C17.5277 12.2961 18.1205 11.9998 18.75 11.9998H21.25C21.8795 11.9998 22.4723 12.2961 22.85 12.7998L23.9 14.1998C24.2777 14.7034 24.8705 14.9998 25.5 14.9998H27C28.1046 14.9998 29 15.8952 29 16.9998V25.9998C29 27.1044 28.1046 27.9998 27 27.9998H13C11.8954 27.9998 11 27.1044 11 25.9998V16.9998Z" stroke="white" stroke-width="1.5" stroke-linecap="round" stroke-linejoin="round"/>
<path d="M20 25C22.2091 25 24 23.2091 24 21C24 18.7909 22.2091 17 20 17C17.7909 17 16 18.7909 16 21C16 23.2091 17.7909 25 20 25Z" stroke="white" stroke-width="1.5" stroke-linecap="round" stroke-linejoin="round"/>
</svg>
