<svg width="16" height="16" viewBox="0 0 16 16" fill="none" xmlns="http://www.w3.org/2000/svg">
<g clip-path="url(#clip0_68_1717)">
<path d="M2.66666 0H4.66666C6.13941 0 7.33331 1.19391 7.33331 2.66666V4.66666C7.33331 6.13941 6.13941 7.33331 4.66666 7.33331H2.66666C1.19391 7.33334 0 6.13944 0 4.66666V2.66666C0 1.19391 1.19391 0 2.66666 0Z" fill="black" fill-opacity="0.9"/>
<path d="M11.3334 0H13.3334C14.8062 0 16.0001 1.19391 16.0001 2.66666V4.66666C16.0001 6.13941 14.8062 7.33331 13.3334 7.33331H11.3334C9.86065 7.33331 8.66675 6.13941 8.66675 4.66666V2.66666C8.66672 1.19391 9.86062 0 11.3334 0Z" fill="black" fill-opacity="0.9"/>
<path d="M2.66666 8.66666H4.66666C6.13941 8.66666 7.33331 9.86056 7.33331 11.3333V13.3333C7.33331 14.8061 6.13941 16 4.66666 16H2.66666C1.19391 16 0 14.8061 0 13.3333V11.3333C0 9.86056 1.19391 8.66666 2.66666 8.66666Z" fill="black" fill-opacity="0.9"/>
<path d="M11.3334 8.66666H13.3334C14.8062 8.66666 16.0001 9.86056 16.0001 11.3333V13.3333C16.0001 14.8061 14.8062 16 13.3334 16H11.3334C9.86065 16 8.66675 14.8061 8.66675 13.3333V11.3333C8.66672 9.86056 9.86062 8.66666 11.3334 8.66666Z" fill="black" fill-opacity="0.9"/>
</g>
<defs>
<clipPath id="clip0_68_1717">
<rect width="16" height="16" fill="white"/>
</clipPath>
</defs>
</svg>
