<svg width="24" height="24" viewBox="0 0 24 24" fill="none" xmlns="http://www.w3.org/2000/svg">
<path d="M12 9V5M12 9C11.4067 9 10.8266 9.17595 10.3333 9.50559C9.83994 9.83524 9.45542 10.3038 9.22836 10.8519C9.0013 11.4001 8.94189 12.0033 9.05764 12.5853C9.1734 13.1672 9.45912 13.7018 9.87868 14.1213C10.2982 14.5409 10.8328 14.8266 11.4147 14.9424C11.9967 15.0581 12.5999 14.9987 13.1481 14.7716C13.6962 14.5446 14.1648 14.1601 14.4944 13.6667C14.8241 13.1734 15 12.5933 15 12M12 9C12.7956 9 13.5587 9.31607 14.1213 9.87868C14.6839 10.4413 15 11.2044 15 12M12 5L14 3M12 5L10 3M9.88 9.88L7.05 7.05M7.05 7.05H4.22M7.05 7.05V4.22M9.05 12.05H5M9.88 14.17L7.05 17M7.05 17V19.78M7.05 17H4.22M12 19V15M12 19L14 21M12 19L10 21M17 17L14.17 14.17M17 17H19.78M17 17V19.83M19 12H15M19 12L21 10M19 12L21 14M17 7.05L14.12 9.88M17 7.05V4.22M17 7.05H19.83M3 14L5 12L3 10" stroke="white" stroke-width="1.5" stroke-linecap="round" stroke-linejoin="round"/>
</svg>
