<svg width="24" height="24" viewBox="0 0 24 24" fill="none" xmlns="http://www.w3.org/2000/svg">
<path fill-rule="evenodd" clip-rule="evenodd" d="M7.75 17.501C7.75 17.0868 7.41421 16.751 7 16.751H2C1.58579 16.751 1.25 17.0868 1.25 17.501C1.25 17.9152 1.58579 18.251 2 18.251H7C7.41421 18.251 7.75 17.9152 7.75 17.501Z" fill="white"/>
<path fill-rule="evenodd" clip-rule="evenodd" d="M16.25 6.50098C16.25 6.08677 16.5858 5.75098 17 5.75098H22C22.4142 5.75098 22.75 6.08677 22.75 6.50098C22.75 6.91519 22.4142 7.25098 22 7.25098H17C16.5858 7.25098 16.25 6.91519 16.25 6.50098Z" fill="white"/>
<path fill-rule="evenodd" clip-rule="evenodd" d="M22.75 17.501C22.75 17.0868 22.4142 16.751 22 16.751H13C12.5858 16.751 12.25 17.0868 12.25 17.501C12.25 17.9152 12.5858 18.251 13 18.251H22C22.4142 18.251 22.75 17.9152 22.75 17.501Z" fill="white"/>
<path fill-rule="evenodd" clip-rule="evenodd" d="M1.25 6.50098C1.25 6.08677 1.58579 5.75098 2 5.75098H11C11.4142 5.75098 11.75 6.08677 11.75 6.50098C11.75 6.91519 11.4142 7.25098 11 7.25098H2C1.58579 7.25098 1.25 6.91519 1.25 6.50098Z" fill="white"/>
<path fill-rule="evenodd" clip-rule="evenodd" d="M10 15.1504C11.2426 15.1504 12.25 16.1578 12.25 17.4004C12.25 18.643 11.2426 19.6504 10 19.6504C8.75736 19.6504 7.75 18.643 7.75 17.4004C7.75 16.1578 8.75736 15.1504 10 15.1504ZM13.75 17.4004C13.75 15.3293 12.0711 13.6504 10 13.6504C7.92893 13.6504 6.25 15.3293 6.25 17.4004C6.25 19.4715 7.92893 21.1504 10 21.1504C12.0711 21.1504 13.75 19.4715 13.75 17.4004Z" fill="white"/>
<path fill-rule="evenodd" clip-rule="evenodd" d="M14 4.15039C12.7574 4.15039 11.75 5.15775 11.75 6.40039C11.75 7.64303 12.7574 8.65039 14 8.65039C15.2426 8.65039 16.25 7.64303 16.25 6.40039C16.25 5.15775 15.2426 4.15039 14 4.15039ZM10.25 6.40039C10.25 4.32932 11.9289 2.65039 14 2.65039C16.0711 2.65039 17.75 4.32932 17.75 6.40039C17.75 8.47146 16.0711 10.1504 14 10.1504C11.9289 10.1504 10.25 8.47146 10.25 6.40039Z" fill="white"/>
</svg>
