<svg width="24" height="24" viewBox="0 0 24 24" fill="none" xmlns="http://www.w3.org/2000/svg">
<rect width="24" height="24" rx="12" fill="#FF8D2A"/>
<path d="M17.6843 9.28515L11.0255 5.95577C6.55266 3.71544 4.71684 5.55127 6.95716 10.0241L7.63393 11.3777C7.8284 11.7744 7.8284 12.2334 7.63393 12.6301L6.95716 13.9759C4.71684 18.4487 6.54488 20.2846 11.0255 18.0442L17.6843 14.7149C20.6714 13.2213 20.6714 10.7787 17.6843 9.28515ZM15.1717 12.5834H10.9711C10.6521 12.5834 10.3877 12.3189 10.3877 12C10.3877 11.6811 10.6521 11.4166 10.9711 11.4166H15.1717C15.4906 11.4166 15.7551 11.6811 15.7551 12C15.7551 12.3189 15.4906 12.5834 15.1717 12.5834Z" fill="white"/>
</svg>
