<svg width="40" height="40" viewBox="0 0 40 40" fill="none" xmlns="http://www.w3.org/2000/svg">
<path d="M5 14.9996C5 13.1586 6.49238 11.6663 8.33333 11.6663H10.8333C11.8825 11.6663 12.8705 11.1723 13.5 10.3329L15.25 7.99959C15.8795 7.16024 16.8675 6.66626 17.9167 6.66626H22.0833C23.1325 6.66626 24.1205 7.16024 24.75 7.99959L26.5 10.3329C27.1295 11.1723 28.1175 11.6663 29.1667 11.6663H31.6667C33.5077 11.6663 35 13.1586 35 14.9996V29.9996C35 31.8406 33.5077 33.3329 31.6667 33.3329H8.33333C6.49238 33.3329 5 31.8406 5 29.9996V14.9996Z" stroke="#FF8D2A" stroke-width="2" stroke-linecap="round" stroke-linejoin="round"/>
<path d="M20.0002 28.3333C23.6821 28.3333 26.6668 25.3486 26.6668 21.6667C26.6668 17.9848 23.6821 15 20.0002 15C16.3183 15 13.3335 17.9848 13.3335 21.6667C13.3335 25.3486 16.3183 28.3333 20.0002 28.3333Z" stroke="#FF8D2A" stroke-width="2" stroke-linecap="round" stroke-linejoin="round"/>
</svg>
