<svg width="16" height="16" viewBox="0 0 16 16" fill="none" xmlns="http://www.w3.org/2000/svg">
<path d="M8.00399 8.20599C10.4113 8.19199 11.7073 6.89199 11.752 4.42533C11.7107 2.05199 10.3447 0.682661 7.99599 0.667328C5.62199 0.681995 4.24799 2.08199 4.24799 4.44866C4.24799 6.81533 5.62265 8.19199 8.00399 8.20599Z" fill="#808080"/>
<path d="M7.99598 9.10733C4.44398 9.13 2.53264 11.048 2.46864 14.6553C2.46598 14.834 2.53464 15.0067 2.65998 15.134C2.78531 15.2613 2.95664 15.3333 3.13531 15.3333H12.8653C13.044 15.3333 13.2153 15.2613 13.3406 15.134C13.466 15.0067 13.5346 14.834 13.532 14.6553C13.4706 11.1 11.508 9.13 7.99598 9.10733Z" fill="#808080"/>
</svg>
