<svg width="14" height="14" viewBox="0 0 14 14" fill="none" xmlns="http://www.w3.org/2000/svg">
<path d="M11.6843 4.28515L5.02554 0.955772C0.55266 -1.28456 -1.28316 0.551268 0.957164 5.02414L1.63393 6.3777C1.8284 6.77442 1.8284 7.23338 1.63393 7.6301L0.957164 8.97586C-1.28316 13.4487 0.544881 15.2846 5.02554 13.0442L11.6843 9.71485C14.6714 8.2213 14.6714 5.77872 11.6843 4.28515ZM9.17171 7.58343H4.97108C4.65215 7.58343 4.38766 7.31895 4.38766 7.00001C4.38766 6.68108 4.65215 6.41659 4.97108 6.41659H9.17171C9.49064 6.41659 9.75512 6.68108 9.75512 7.00001C9.75512 7.31895 9.49064 7.58343 9.17171 7.58343Z" fill="white"/>
</svg>
