<svg width="20" height="20" viewBox="0 0 20 20" fill="none" xmlns="http://www.w3.org/2000/svg">
<path d="M19.1304 9.13042H0.869551C0.389307 9.13042 0 9.51973 0 9.99998C0 10.4802 0.389307 10.8695 0.869551 10.8695H19.1304C19.6107 10.8695 20 10.4802 20 9.99998C20 9.51973 19.6107 9.13042 19.1304 9.13042Z" fill="black"/>
<path d="M0.869551 4.78259H19.1304C19.6107 4.78259 20 4.39328 20 3.91304C20 3.43279 19.6107 3.04349 19.1304 3.04349H0.869551C0.389307 3.04349 0 3.43279 0 3.91304C0 4.39328 0.389307 4.78259 0.869551 4.78259Z" fill="black"/>
<path d="M19.1304 15.2174H0.869551C0.389307 15.2174 0 15.6067 0 16.087C0 16.5672 0.389307 16.9565 0.869551 16.9565H19.1304C19.6107 16.9565 20 16.5672 20 16.087C20 15.6067 19.6107 15.2174 19.1304 15.2174Z" fill="black"/>
</svg>
