<svg width="165" height="135" viewBox="0 0 165 135" fill="none" xmlns="http://www.w3.org/2000/svg">
<path d="M120.67 69.7913L113.394 77.0677L123.092 86.7656L130.368 79.4893L120.67 69.7913Z" fill="#B2B2CC"/>
<path d="M128.776 76.4759C128.928 76.3239 129.108 76.2033 129.307 76.121C129.506 76.0387 129.719 75.9963 129.934 75.9963C130.149 75.9963 130.362 76.0387 130.56 76.121C130.759 76.2033 130.939 76.3239 131.091 76.4759L162.032 107.417C163.448 108.832 164.243 110.752 164.243 112.753C164.243 114.754 163.448 116.674 162.032 118.089C160.617 119.504 158.698 120.299 156.696 120.299C154.695 120.299 152.776 119.504 151.36 118.089L120.419 87.1504C120.267 86.9984 120.146 86.8179 120.064 86.6193C119.981 86.4206 119.939 86.2077 119.939 85.9927C119.939 85.7777 119.981 85.5648 120.064 85.3662C120.146 85.1675 120.267 84.987 120.419 84.835L128.776 76.4759Z" fill="#242456"/>
<path opacity="0.43" d="M88.4778 87.4096C111.969 87.4096 131.012 68.3663 131.012 44.8752C131.012 21.3841 111.969 2.34086 88.4778 2.34086C64.9867 2.34086 45.9434 21.3841 45.9434 44.8752C45.9434 68.3663 64.9867 87.4096 88.4778 87.4096Z" fill="#A4D9F7"/>
<path opacity="0.42" d="M87.1347 11.7061C87.1043 11.3159 86.9913 10.9367 86.803 10.5935C86.6147 10.2504 86.3555 9.95137 86.0427 9.71621C85.7299 9.48105 85.3705 9.3152 84.9886 9.22968C84.6067 9.14417 84.211 9.14096 83.8277 9.22026C70.3196 12.0444 58.5592 22.4792 54.394 35.6733C54.0825 36.6605 53.8281 37.8018 54.381 38.6765C55.1658 39.919 57.1498 39.7745 58.2529 38.8002C59.3561 37.826 59.8225 36.3464 60.3416 34.9716C64.4645 24.0557 73.3903 16.0384 84.7068 14.6618C85.4145 14.5773 86.0623 14.2226 86.5147 13.6718C86.9671 13.121 87.1892 12.4168 87.1347 11.7061Z" fill="white"/>
<path opacity="0.42" d="M58.0446 47.5991C58.0446 49.7812 57.3178 51.5498 55.7465 51.5498C54.1752 51.5498 52.9007 49.7812 52.9007 47.5991C52.9007 45.4169 54.1752 43.6475 55.7465 43.6475C57.3178 43.6475 58.0446 45.4169 58.0446 47.5991Z" fill="white"/>
<path opacity="0.07" d="M131.013 44.8754C131.013 68.3667 111.969 87.4098 88.4776 87.4098C69.2874 87.4098 53.065 74.7011 47.768 57.2406C53.9173 71.7671 68.3045 81.9639 85.0729 81.9639C107.434 81.9639 125.566 63.8346 125.566 41.4707C125.566 24.7006 115.372 10.3125 100.843 4.16497C118.302 9.45678 131.013 25.6835 131.013 44.8754Z" fill="black"/>
<path d="M88.4778 89.8109C78.1112 89.8043 68.0655 86.2145 60.0424 79.6496C52.0194 73.0847 46.5122 63.9483 44.4538 53.7881C42.3955 43.6278 43.9124 33.0684 48.7477 23.8985C53.583 14.7286 61.4394 7.51201 70.9861 3.47115C81.9566 -1.11003 94.2952 -1.15835 105.301 3.33677C116.307 7.83189 125.084 16.5043 129.711 27.4557C134.337 38.4071 134.437 50.7454 129.987 61.7699C125.538 72.7944 116.902 81.6071 105.97 86.279C100.436 88.6208 94.4866 89.8221 88.4778 89.8109ZM88.4778 4.74132C79.22 4.74927 70.2494 7.95652 63.0851 13.8199C55.9208 19.6834 51.0031 27.8426 49.1647 36.9161C47.3263 45.9895 48.6802 55.4195 52.9971 63.6092C57.3141 71.7989 64.3287 78.245 72.8533 81.8559C82.6397 85.8822 93.62 85.8817 103.406 81.8547C113.192 77.8276 120.993 70.0997 125.111 60.3516C129.229 50.6035 129.332 39.6237 125.397 29.8002C121.462 19.9766 113.808 12.1039 104.099 7.89426C99.157 5.80304 93.8439 4.73065 88.4778 4.74132Z" fill="#D9D9E8"/>
<path d="M88.4775 85.8256C79.0302 85.8198 69.8754 82.5486 62.5637 76.566C55.2521 70.5835 50.2332 62.2573 48.3574 52.9982C46.4816 43.739 47.864 34.116 52.2706 25.7594C56.6773 17.4028 63.8371 10.8263 72.5372 7.14404C82.5441 2.9164 93.8205 2.83713 103.886 6.92367C113.951 11.0102 121.981 18.9278 126.209 28.9347C130.436 38.9416 130.515 50.218 126.429 60.2833C122.342 70.3487 114.425 78.3784 104.418 82.606C99.3752 84.7409 93.9535 85.8359 88.4775 85.8256ZM88.4775 5.74321C79.45 5.74982 70.7022 8.87666 63.716 14.5941C56.7297 20.3115 51.9345 28.268 50.1425 37.116C48.3505 45.9639 49.6719 55.1592 53.883 63.1444C58.094 71.1297 64.9357 77.4139 73.2493 80.9326C82.8053 84.9332 93.5575 84.9823 103.15 81.0693C112.742 77.1564 120.392 69.6004 124.423 60.0572C128.454 50.5141 128.537 39.7621 124.655 30.1575C120.773 20.5529 113.241 12.879 103.711 8.81741C98.8917 6.77828 93.7104 5.73267 88.4775 5.74321Z" fill="#B2B2CC"/>
<path d="M75.9249 135C117.857 135 151.85 133.76 151.85 132.231C151.85 130.702 117.857 129.462 75.9249 129.462C33.9927 129.462 0 130.702 0 132.231C0 133.76 33.9927 135 75.9249 135Z" fill="#D9D9E8"/>
</svg>
