<svg width="103" height="81" viewBox="0 0 103 81" fill="none" xmlns="http://www.w3.org/2000/svg">
<path d="M0.240445 74.7111C0.0848495 74.2563 0 73.7687 0 73.2611V4.46612C0 1.99935 1.9993 0 4.46612 0H34.5907C36.0526 0 37.4639 0.538163 38.5551 1.51101L46.6827 8.76249C47.7739 9.73534 49.1844 10.2735 50.6471 10.2735H84.5584C87.0252 10.2735 89.0245 12.2728 89.0245 14.7396V20.5627L0.240445 74.7111Z" fill="#242456"/>
<path d="M7.52726 50.4514V17.6595C7.52726 16.6703 8.32903 15.8684 9.31833 15.8684H80.7547C81.744 15.8684 82.5458 16.6702 82.5458 17.6595V45.9263L7.52726 50.4514Z" fill="#E8E8E8"/>
<path d="M9.13243 52.5148V19.7229C9.13243 18.7336 9.9342 17.9318 10.9235 17.9318H82.3599C83.3492 17.9318 84.151 18.7336 84.151 19.7229V47.9896L9.13243 52.5148Z" fill="white"/>
<path d="M102.834 26.2248L88.5982 77.4443C88.041 79.4491 86.2155 80.8365 84.1347 80.8365H4.63535C1.5779 80.8365 -0.641028 77.927 0.167622 74.9785L12.038 31.6961C12.57 29.7561 14.3334 28.4112 16.345 28.4112H54.4722C55.5352 28.4112 56.5788 28.1267 57.4947 27.5871L68.02 21.3868C68.9359 20.8473 69.9795 20.5628 71.0424 20.5628H98.5311C101.485 20.5628 103.625 23.3789 102.834 26.2248Z" fill="#A4D9F7"/>
</svg>
