<svg width="17" height="17" viewBox="0 0 17 17" fill="none" xmlns="http://www.w3.org/2000/svg">
<g clip-path="url(#clip0_559_19902)">
<path fill-rule="evenodd" clip-rule="evenodd" d="M8.50008 1.94775C4.88147 1.94775 1.948 4.88122 1.948 8.49984C1.948 12.1184 4.88147 15.0519 8.50008 15.0519C12.1187 15.0519 15.0522 12.1184 15.0522 8.49984C15.0522 4.88122 12.1187 1.94775 8.50008 1.94775ZM0.885498 8.49984C0.885498 4.29442 4.29466 0.885254 8.50008 0.885254C12.7055 0.885254 16.1147 4.29442 16.1147 8.49984C16.1147 12.7053 12.7055 16.1144 8.50008 16.1144C4.29466 16.1144 0.885498 12.7053 0.885498 8.49984ZM8.50008 5.13525C8.79347 5.13525 9.03133 5.37311 9.03133 5.6665V8.27976L10.6465 9.89504C10.854 10.1025 10.854 10.4388 10.6465 10.6463C10.4391 10.8538 10.1028 10.8538 9.89529 10.6463L8.12445 8.87547C8.02479 8.77587 7.96883 8.64072 7.96883 8.49984V5.6665C7.96883 5.37311 8.20669 5.13525 8.50008 5.13525Z" fill="white"/>
</g>
<defs>
<clipPath id="clip0_559_19902">
<rect width="17" height="17" fill="white"/>
</clipPath>
</defs>
</svg>
