<svg width="17" height="17" viewBox="0 0 17 17" fill="none" xmlns="http://www.w3.org/2000/svg">
<g clip-path="url(#clip0_397_10050)">
<path fill-rule="evenodd" clip-rule="evenodd" d="M8.5 1.59375C6.66835 1.59375 4.91172 2.32137 3.61654 3.61654C2.32137 4.91172 1.59375 6.66835 1.59375 8.5C1.59375 10.3317 2.32137 12.0883 3.61654 13.3835C4.91172 14.6786 6.66835 15.4062 8.5 15.4062C10.3317 15.4062 12.0883 14.6786 13.3835 13.3835C14.6786 12.0883 15.4062 10.3317 15.4062 8.5C15.4062 6.66835 14.6786 4.91172 13.3835 3.61654C12.0883 2.32137 10.3317 1.59375 8.5 1.59375ZM0 8.5C0 6.24566 0.895533 4.08365 2.48959 2.48959C4.08365 0.895533 6.24566 0 8.5 0C10.7543 0 12.9163 0.895533 14.5104 2.48959C16.1045 4.08365 17 6.24566 17 8.5C17 10.7543 16.1045 12.9163 14.5104 14.5104C12.9163 16.1045 10.7543 17 8.5 17C6.24566 17 4.08365 16.1045 2.48959 14.5104C0.895533 12.9163 0 10.7543 0 8.5Z" fill="#DAD9DE"/>
<path fill-rule="evenodd" clip-rule="evenodd" d="M7.70312 0.796875C7.70312 0.585531 7.78708 0.382842 7.93652 0.233399C8.08597 0.0839562 8.28866 0 8.5 0C10.7543 0 12.9163 0.895533 14.5104 2.48959C16.1045 4.08365 17 6.24566 17 8.5C17 8.71134 16.916 8.91403 16.7666 9.06348C16.6172 9.21292 16.4145 9.29688 16.2031 9.29688C15.9918 9.29688 15.7891 9.21292 15.6396 9.06348C15.4902 8.91403 15.4062 8.71134 15.4062 8.5C15.4062 6.66835 14.6786 4.91172 13.3835 3.61654C12.0883 2.32137 10.3317 1.59375 8.5 1.59375C8.28866 1.59375 8.08597 1.50979 7.93652 1.36035C7.78708 1.21091 7.70313 1.00822 7.70312 0.796875Z" fill="#FF8D2A"/>
<path d="M10.75 6.25L6.25 10.75" stroke="#FF8D2A" stroke-width="1.42" stroke-linecap="round" stroke-linejoin="round"/>
<path d="M6.25 6.25L10.75 10.75" stroke="#FF8D2A" stroke-width="1.42" stroke-linecap="round" stroke-linejoin="round"/>
</g>
<defs>
<clipPath id="clip0_397_10050">
<rect width="17" height="17" fill="white"/>
</clipPath>
</defs>
</svg>
