<svg width="17" height="17" viewBox="0 0 17 17" fill="none" xmlns="http://www.w3.org/2000/svg">
<path d="M5.16673 8.93332H4.7334V8.06665H5.16673C5.40605 8.06665 5.60007 8.26066 5.60007 8.49998C5.60007 8.73931 5.40605 8.93332 5.16673 8.93332Z" fill="#757384"/>
<path d="M8.2002 10.6667V8.06665H8.63353C8.87285 8.06665 9.06686 8.26066 9.06686 8.49998V10.2333C9.06686 10.4726 8.87285 10.6667 8.63353 10.6667H8.2002Z" fill="#757384"/>
<path fill-rule="evenodd" clip-rule="evenodd" d="M3 3.3C3 2.58203 3.58203 2 4.3 2H11.4128L14.2667 4.85384V13.7C14.2667 14.4179 13.6846 15 12.9667 15H4.3C3.58203 15 3 14.4179 3 13.7V3.3ZM5.16667 7.2H3.86667V11.5333H4.73333V9.8H5.16667C5.88464 9.8 6.46667 9.21797 6.46667 8.5C6.46667 7.78203 5.88464 7.2 5.16667 7.2ZM8.63333 7.2H7.33333V11.5333H8.63333C9.35131 11.5333 9.93333 10.9513 9.93333 10.2333V8.5C9.93333 7.78203 9.35131 7.2 8.63333 7.2ZM10.8 11.5333V7.2H13.4V8.06667H11.6667V8.93333H12.5333V9.8H11.6667V11.5333H10.8Z" fill="#757384"/>
</svg>
